# xmcd CD database file
#
# Track frame offsets:
#	150
#	19179
#	41391
#	54977
#	69280
#	86029
#	106811
#	127874
#	143630
#	154284
#	178010
#	196940
#	211401
#	228886
#	286504
#
# Disc length: 4543 seconds
#
# Revision: 0
# Processed by: cddbd v1.5.2PL0 Copyright (c) Steve Scherf et al.
# Submitted via: CDex 1.51
#
DISCID=bd11bd0f
DTITLE=Dizzy Gillespie - Gettin' Dizzy [CD 1)
DYEAR=2009
DGENRE=Jazz
TTITLE0=Jordu
TTITLE1=Birk's Works
TTITLE2=Umbrella Man
TTITLE3=Autumn Leaves
TTITLE4=Tangerine
TTITLE5=Over The Rainbow
TTITLE6=Yo No Quiero Bailar
TTITLE7=If You Could See Me Now
TTITLE8=Left Hand Corner
TTITLE9=Whisper Not
TTITLE10=Stablemates
TTITLE11=That's All
TTITLE12=Groovin' High
TTITLE13=Bebop
TTITLE14=Dark Eyes
EXTD=YEAR: 2009
EXTT0=
EXTT1=
EXTT2=
EXTT3=
EXTT4=
EXTT5=
EXTT6=
EXTT7=
EXTT8=
EXTT9=
EXTT10=
EXTT11=
EXTT12=
EXTT13=
EXTT14=
PLAYORDER=
